<?xml version="1.0" encoding="UTF-8"?>
<svg id="Capa_1" data-name="Capa 1" xmlns="http://www.w3.org/2000/svg" viewBox="0 0 800 765.07">
  <defs>
    <style>
      .cls-1 {
        fill: #fff;
      }
    </style>
  </defs>
  <path class="cls-1" d="M438.62,24.02l90.23,182.83c6.27,12.72,18.41,21.53,32.44,23.56l201.77,29.32c35.34,5.14,49.45,48.56,23.88,73.48l-146,142.31c-10.15,9.9-14.79,24.16-12.38,38.13l34.46,200.95c6.04,35.19-30.91,62.03-62.51,45.42l-180.46-94.87c-12.55-6.59-27.55-6.59-40.1,0l-180.46,94.87c-31.61,16.62-68.55-10.23-62.51-45.42l34.46-200.95c2.4-13.97-2.24-28.24-12.38-38.13L13.06,333.2c-25.57-24.93-11.46-68.35,23.88-73.48l201.77-29.32c14.03-2.04,26.17-10.85,32.44-23.56L361.37,24.02c15.79-32.02,61.44-32.02,77.25,0Z"/>
</svg>